<?xml version="1.0" encoding="iso-8859-1"?>
<!-- Generator: Adobe Illustrator 20.1.0, SVG Export Plug-In . SVG Version: 6.00 Build 0)  -->
<svg version="1.1" id="Capa_1" xmlns="http://www.w3.org/2000/svg" xmlns:xlink="http://www.w3.org/1999/xlink" x="0px" y="0px"
	 viewBox="0 0 22 22" style="enable-background:new 0 0 22 22;" xml:space="preserve">
<g>
	<path d="M10.003,20.469l-8.911-9.722c-0.567-0.618-0.57-1.623-0.005-2.244C1.65,7.882,2.567,7.88,3.134,8.498l7.885,8.602
		l7.843-8.64c0.564-0.621,1.48-0.623,2.047-0.005c0.567,0.618,0.569,1.623,0.005,2.244l-8.864,9.765
		c-0.282,0.31-0.652,0.466-1.022,0.467C10.657,20.932,10.286,20.778,10.003,20.469z"/>
</g>
<g>
	<path d="M10.003,13.599L1.092,3.877c-0.567-0.618-0.57-1.623-0.005-2.244c0.564-0.621,1.48-0.623,2.047-0.005l7.885,8.602
		l7.843-8.64c0.564-0.621,1.48-0.623,2.047-0.005c0.567,0.618,0.569,1.623,0.005,2.244l-8.864,9.765
		c-0.282,0.31-0.652,0.466-1.022,0.467C10.657,14.062,10.286,13.908,10.003,13.599z"/>
</g>
</svg>
