<?xml version="1.0" encoding="iso-8859-1"?>
<!-- Generator: Adobe Illustrator 20.1.0, SVG Export Plug-In . SVG Version: 6.00 Build 0)  -->
<svg version="1.1" id="Capa_1" xmlns="http://www.w3.org/2000/svg" xmlns:xlink="http://www.w3.org/1999/xlink" x="0px" y="0px"
	 width="20px" height="20px" viewBox="0 0 20 20" style="enable-background:new 0 0 20 20;" xml:space="preserve">
<g>
	<path d="M18.696,3.407c-0.277-0.278-0.606-0.416-0.985-0.416h-1.402V1.94c0-0.482-0.171-0.895-0.515-1.238
		c-0.343-0.343-0.756-0.515-1.238-0.515h-0.701c-0.482,0-0.894,0.172-1.237,0.515c-0.343,0.343-0.515,0.756-0.515,1.238v1.052H7.897
		V1.94c0-0.482-0.171-0.895-0.515-1.238C7.039,0.359,6.627,0.187,6.145,0.187H5.444c-0.482,0-0.894,0.172-1.237,0.515
		C3.863,1.045,3.692,1.458,3.692,1.94v1.052H2.29c-0.38,0-0.708,0.138-0.986,0.416C1.027,3.684,0.888,4.013,0.888,4.393v14.018
		c0,0.379,0.138,0.708,0.416,0.985c0.278,0.278,0.606,0.416,0.986,0.416h15.42c0.38,0,0.709-0.138,0.986-0.416
		c0.278-0.278,0.416-0.606,0.416-0.985V4.393C19.112,4.013,18.973,3.684,18.696,3.407L18.696,3.407z M5.444,18.411H2.29v-3.154
		h3.154V18.411z M5.444,14.556H2.29v-3.504h3.154V14.556z M5.444,10.351H2.29V7.196h3.154V10.351z M5.198,5.34
		c-0.07-0.07-0.104-0.152-0.104-0.247V1.94c0-0.095,0.034-0.177,0.104-0.246c0.07-0.07,0.152-0.104,0.246-0.104h0.701
		c0.095,0,0.177,0.035,0.247,0.104C6.461,1.762,6.495,1.844,6.495,1.94v3.154c0,0.095-0.035,0.177-0.104,0.247
		C6.322,5.409,6.24,5.444,6.145,5.444H5.444C5.349,5.444,5.267,5.409,5.198,5.34L5.198,5.34z M9.65,18.411H6.145v-3.154H9.65V18.411
		z M9.65,14.556H6.145v-3.504H9.65V14.556z M9.65,10.351H6.145V7.196H9.65V10.351z M13.855,18.411h-3.504v-3.154h3.504V18.411z
		 M13.855,14.556h-3.504v-3.504h3.504V14.556z M13.855,10.351h-3.504V7.196h3.504V10.351z M13.609,5.34
		c-0.07-0.07-0.104-0.152-0.104-0.247V1.94c0-0.095,0.034-0.177,0.104-0.246c0.069-0.07,0.151-0.104,0.246-0.104h0.701
		c0.095,0,0.177,0.035,0.246,0.104c0.07,0.069,0.104,0.151,0.104,0.246v3.154c0,0.095-0.035,0.177-0.104,0.247
		c-0.069,0.069-0.151,0.104-0.246,0.104h-0.701C13.76,5.444,13.678,5.409,13.609,5.34L13.609,5.34z M17.71,18.411h-3.154v-3.154
		h3.154V18.411z M17.71,14.556h-3.154v-3.504h3.154V14.556z M17.71,10.351h-3.154V7.196h3.154V10.351z M17.71,10.351"/>
</g>
</svg>
